<svg width="630" height="715" viewBox="0 0 630 715" fill="none" xmlns="http://www.w3.org/2000/svg">
<path d="M494.949 528.764C494.815 528.354 494.681 527.944 494.537 527.539C493.591 527.076 492.531 526.351 491.193 525.414C491.998 525.242 492.854 525.145 493.695 525.044C493.12 523.37 492.531 521.691 491.933 520.017C489.84 520.255 487.734 519.877 485.734 517.187C489.582 513.399 483.005 511.609 482.936 507.931C484.786 506.542 486.193 506.881 487.543 507.748C481.844 491.483 477.149 475.095 480.577 459.041C485.782 434.645 508.073 418.405 526.756 401.559C545.446 384.715 562.702 360.748 554.367 336.414C546.759 314.185 519.081 301.486 495.249 304.155C471.414 306.83 451.488 321.508 436.205 338.505C420.92 355.509 409.108 375.179 393.918 392.265C363.711 426.245 364.86 361.216 372.826 344.589C381.978 325.483 399.127 310.957 418.313 300.718C460.638 278.136 510.791 269.764 556.098 253.419C574.227 246.879 592.284 238.429 606.745 226.236C617.666 217.033 626.408 204.996 629.103 191.105C631.339 179.579 629.27 167.268 624.279 156.155C617.858 141.879 606.134 129.135 591.07 123.181C544.71 104.863 489.488 147.104 456.491 170.593C448.95 175.96 440.183 181.921 430.677 179.684C405.876 173.832 407.966 142.102 417.072 127.155C432.585 101.691 465.517 81.7135 460.164 47.4775C458.434 36.3991 452.078 26.2507 445.156 16.9224C441.873 12.5013 438.335 8.08982 433.602 5.09338C410.645 -9.44182 374.811 9.88217 363.587 28.5765C360.547 33.6385 348.157 87.1495 329.761 119.516C331.049 121.507 332.33 123.488 333.633 125.506C326.704 128.584 326.704 128.584 326.781 135.848C323.791 138.846 321.381 136.324 318.844 134.98C309.518 144.993 299.077 147.952 287.843 137.313C286.171 135.727 285.068 133.727 283.996 131.759C269.468 105.201 244.669 65.4266 211.053 96.3034C203.973 102.808 198.862 110.99 193.879 119.109C187.283 129.848 180.714 140.742 176.947 152.768C171.498 170.151 172.233 190.278 188.185 203.555C201.749 214.833 220.172 219.436 236.829 223.987C250.41 227.698 285.965 238.901 284.626 257.06C284.068 264.674 275.892 269.181 268.247 271.212C218.061 284.522 171.285 241.87 124.356 229.857C98.2567 223.176 68.3844 223.366 46.0814 237.265C30.0778 247.234 18.9539 264.566 19.2396 283.242C19.8937 325.95 76.8802 344.035 112.899 348.886C136.909 352.119 222.447 340.992 233.827 366.576C236.602 372.816 236.057 379.889 233.744 386.038C218.939 425.428 156.906 415.463 122.053 418.943C87.2634 422.42 29.06 426.071 8.39882 455.931C0.53384 467.302 -1.34276 481.962 0.854394 495.884C4.02956 516.02 13.9669 536.536 28.9856 551.715C30.2522 550.845 31.5633 549.931 32.9991 548.966C34.6133 551.463 36.2044 553.931 37.8364 556.448C36.8785 556.875 36.0655 557.235 35.3622 557.571C42.9351 563.871 51.5463 568.863 61.0281 571.978C61.3014 571.767 61.5675 571.554 61.8408 571.344C62.2313 571.767 62.633 572.179 63.0254 572.595C69.0368 574.379 75.3826 575.412 82.0237 575.555C106.938 576.081 129.416 563.822 148.559 549.676C183.583 523.798 221.677 487.109 272.194 496.729C275.153 497.289 278.371 498.21 280.096 500.624C281.676 502.83 281.544 505.672 281.09 508.208C278.283 523.775 265.785 533.39 253.531 542.351C239.38 552.701 223.588 562.677 214.957 578.08C205.795 594.426 212.64 612.763 229.94 622.475C271.551 645.798 297.545 605.701 322.594 583.243C334.115 572.913 350.649 565.18 366.281 570.365C383.249 576 392.211 594.755 392.965 611.585C393.711 628.412 388.488 644.626 387.255 661.321C386.03 678.018 389.997 697.073 404.379 707.615C417.371 717.131 435.851 716.878 449.725 710.121C463.606 703.367 473.533 691.181 481.227 678.296C490.014 663.582 496.292 647.562 500.147 630.874C507.769 597.802 505.849 562.097 494.949 528.764Z" fill="#648767"/>
</svg>
